<svg width="16" height="16" viewBox="0 0 16 16" fill="none" xmlns="http://www.w3.org/2000/svg">
<path fill-rule="evenodd" clip-rule="evenodd" d="M9.19277 8L15.753 1.43979C16.0823 1.11042 16.0823 0.576403 15.753 0.24703C15.4236 -0.0823432 14.8896 -0.0823432 14.5602 0.24703L8 6.80724L1.43979 0.24703C1.11042 -0.0823432 0.576403 -0.0823432 0.24703 0.24703C-0.0823432 0.576403 -0.0823432 1.11042 0.24703 1.43979L6.80724 8L0.24703 14.5602C-0.0823432 14.8896 -0.0823432 15.4236 0.24703 15.753C0.576403 16.0823 1.11042 16.0823 1.43979 15.753L8 9.19277L14.5602 15.753C14.8896 16.0823 15.4236 16.0823 15.753 15.753C16.0823 15.4236 16.0823 14.8896 15.753 14.5602L9.19277 8Z" fill="white"/>
</svg>
