<svg width="21" height="20" viewBox="0 0 21 20" fill="none" xmlns="http://www.w3.org/2000/svg">
<path fill-rule="evenodd" clip-rule="evenodd" d="M3.67499 12C5.12473 12 6.29999 10.8807 6.29999 9.5C6.29999 8.11929 5.12473 7 3.67499 7C2.22524 7 1.04999 8.11929 1.04999 9.5C1.04999 10.8807 2.22524 12 3.67499 12ZM11.025 12C12.4747 12 13.65 10.8807 13.65 9.5C13.65 8.11929 12.4747 7 11.025 7C9.57524 7 8.39999 8.11929 8.39999 9.5C8.39999 10.8807 9.57524 12 11.025 12ZM21 9.5C21 10.8807 19.8247 12 18.375 12C16.9252 12 15.75 10.8807 15.75 9.5C15.75 8.11929 16.9252 7 18.375 7C19.8247 7 21 8.11929 21 9.5Z" fill="white"/>
</svg>
